HIERARCHY
ROOT Hips
{
  OFFSET -102.467 93.6631 130.069
  CHANNELS 6 Xposition Yposition Zposition Zrotation Xrotation Yrotation
  JOINT LeftUpLeg
  {
    OFFSET 8.64259 1.95398 -2.38835
    CHANNELS 3 Zrotation Xrotation Yrotation
    JOINT LeftLeg
    {
      OFFSET 43.7702 0 0
      CHANNELS 3 Zrotation Xrotation Yrotation
      JOINT LeftFoot
      {
        OFFSET 40.6238 0 0
        CHANNELS 3 Zrotation Xrotation Yrotation
        JOINT LeftToeBase
        {
          OFFSET 12.7242 0 0
          CHANNELS 3 Zrotation Xrotation Yrotation
          End Site
          {
            OFFSET 0 0 0
          }
        }
      }
    }
  }
  JOINT RightUpLeg
  {
    OFFSET -8.2249 1.95398 -2.59336
    CHANNELS 3 Zrotation Xrotation Yrotation
    JOINT RightLeg
    {
      OFFSET 43.5653 0 0
      CHANNELS 3 Zrotation Xrotation Yrotation
      JOINT RightFoot
      {
        OFFSET 40.6238 0 0
        CHANNELS 3 Zrotation Xrotation Yrotation
        JOINT RightToeBase
        {
          OFFSET 12.7242 0 0
          CHANNELS 3 Zrotation Xrotation Yrotation
          End Site
          {
            OFFSET 0 0 0
          }
        }
      }
    }
  }
  JOINT Spine
  {
    OFFSET 0.165834 0.87714 6.61349
    CHANNELS 3 Zrotation Xrotation Yrotation
    JOINT Spine1
    {
      OFFSET 7.38963 1.71661e-005 0
      CHANNELS 3 Zrotation Xrotation Yrotation
      JOINT Spine2
      {
        OFFSET 11.9445 1.14441e-005 0
        CHANNELS 3 Zrotation Xrotation Yrotation
        JOINT Spine3
        {
          OFFSET 14.7254 4.19617e-005 0
          CHANNELS 3 Zrotation Xrotation Yrotation
          JOINT Spine4
          {
            OFFSET 10.9679 0 0
            CHANNELS 3 Zrotation Xrotation Yrotation
            JOINT RightShoulder
            {
              OFFSET 2.46616 -1.6653 3.69651
              CHANNELS 3 Zrotation Xrotation Yrotation
              JOINT RightArm
              {
                OFFSET 13.0012 0 0
                CHANNELS 3 Zrotation Xrotation Yrotation
                JOINT RightForeArm
                {
                  OFFSET 28.7848 1.52588e-005 0
                  CHANNELS 3 Zrotation Xrotation Yrotation
                  JOINT RightHand
                  {
                    OFFSET 26.5688 1.52588e-005 0
                    CHANNELS 3 Zrotation Xrotation Yrotation
                    End Site
                    {
                      OFFSET 0 0 0
                    }
                  }
                }
              }
            }
            JOINT LeftShoulder
            {
              OFFSET 2.38034 -1.29275 -3.7523
              CHANNELS 3 Zrotation Xrotation Yrotation
              JOINT LeftArm
              {
                OFFSET 16.3182 6.10351e-005 0
                CHANNELS 3 Zrotation Xrotation Yrotation
                JOINT LeftForeArm
                {
                  OFFSET 27.0901 0 0
                  CHANNELS 3 Zrotation Xrotation Yrotation
                  JOINT LeftHand
                  {
                    OFFSET 24.5451 1.52588e-005 0
                    CHANNELS 3 Zrotation Xrotation Yrotation
                    End Site
                    {
                      OFFSET 0 0 0
                    }
                  }
                }
              }
            }
            JOINT Neck
            {
              OFFSET 5.0226 -0.0266342 0
              CHANNELS 3 Zrotation Xrotation Yrotation
              JOINT Head
              {
                OFFSET 6.69363 2.86102e-005 0
                CHANNELS 3 Zrotation Xrotation Yrotation
                End Site
                {
                  OFFSET 0 0 0
                }
              }
            }
          }
        }
      }
    }
  }
}
MOTION
Frames:	12
Frame Time:	0.0416667
-166.117 93.4902 153.129 99.0222 43.7083 85.8395 -178.856 19.7462 88.3922 -7.65127 9.03821 1.51243 57.4707 0.172272 3.83107 46.8076 0.120195 9.89097 174.863 -7.11529 90.6014 -30.6118 -7.81871 -0.694075 68.4663 4.88386 16.8826 38.8625 0.00772597 9.53615 0.544698 7.75542 -90.5675 11.3663 0.819242 -1.21235 -0.305032 0.765085 -1.24722 -22.8394 1.14569 -0.910105 -2.82676 1.14571 -0.910112 101.076 -48.7887 -83.8928 28.9009 -12.6061 -7.75513 -11.433 -6.13477 -44.2973 -13.4825 -0.4527 -1.31939 -81.4077 -57.5518 91.9082 -27.3861 -1.34279 0.707994 5.79865 34.7429 -7.43069 -12.4104 -0.300272 -1.98186 7.79877 3.69067 -7.48367 -23.1199 3.12904 12.268 
-157.879 91.8472 144.941 100.139 42.2994 83.9497 -179.464 21.3551 86.6924 -21.6469 15.948 1.79675 51.3614 -2.97338 9.39225 44.9129 -0.28562 7.38502 173.063 -8.92886 86.4647 -37.6056 -11.9152 -1.35823 54.8932 9.61094 20.2774 39.7878 2.45547 19.5284 0.607935 7.77667 -90.166 11.3251 1.13249 -0.442061 -0.345451 1.11195 -0.491487 -22.8847 1.21298 -0.0812192 -2.87207 1.21298 -0.0812189 101.222 -49.7057 -83.6458 30.3098 -13.2863 -5.75484 -12.3505 -8.09071 -42.3531 -12.6824 -0.492916 -0.689943 -81.1491 -55.9272 92.1805 -27.7508 -1.24423 0.193924 6.21368 34.0953 -8.0823 -12.005 -0.325638 -1.58624 8.89159 4.04669 -10.3117 -25.0452 3.88995 12.6186 
-150.359 91.3685 137.515 103.612 43.3116 78.7603 -178.923 18.8467 82.8379 -34.9149 16.844 1.56422 57.9581 1.77809 14.7916 38.8097 -0.957687 1.54294 171.942 0.354035 82.3188 -58.9335 -16.0142 -1.94495 42.1815 13.1853 16.9935 12.0302 3.65658 6.99889 0.255112 8.01217 -89.6929 10.8451 0.649806 0.549334 -0.825815 0.673334 0.5202 -23.3606 0.454651 0.719217 -3.34794 0.45467 0.719224 101.657 -50.1446 -82.96 32.6005 -13.6213 -4.25151 -9.59503 -9.45138 -34.9986 -13.2998 -0.632689 0.376941 -81.8455 -55.2232 91.1475 -26.5193 0.377393 -4.76733 6.16772 33.2271 -9.01244 -11.1528 -0.275806 -1.97352 9.17266 4.83175 -11.1911 -25.1349 4.54054 14.3881 
-143.013 93.0618 130.231 105.038 45.6632 79.2788 -178.362 10.7761 84.2703 -35.1605 18.6109 2.9108 63.4079 5.96139 15.7697 39.6896 -0.995691 1.69854 171.551 12.9022 85.5635 -69.4548 -15.6976 -1.11871 45.5836 10.7829 12.6354 22.6622 1.33591 -1.29375 -0.121464 8.01747 -89.9002 10.8411 -0.195502 0.218521 -0.829832 -0.185712 0.226913 -23.3652 -0.25215 0.149666 -3.35252 -0.252158 0.149656 101.252 -50.0232 -83.5926 33.7249 -13.4651 -2.77168 -5.99641 -10.6978 -25.4494 -13.129 -0.753212 1.54159 -82.1978 -55.4873 90.6619 -24.1557 3.40765 -12.8726 6.7324 32.0554 -11.9478 -8.2406 -0.254172 -1.05208 6.71394 5.91922 -10.5001 -24.6841 5.11861 15.4202 
-135.89 94.6112 123.51 105.307 50.4666 80.7989 -177.291 3.73774 87.2127 -32.9335 21.9618 4.22246 65.9832 7.90467 14.6234 41.0905 -1.28963 0.849018 169.22 20.6959 88.3564 -59.4988 -8.90953 1.43944 53.0501 7.21913 12.3807 25.6318 0.922342 1.35682 -0.545838 7.92379 -90.1794 11.0254 -1.16972 -0.244856 -0.645046 -1.17934 -0.193135 -23.1835 -1.04205 -0.585113 -3.1709 -1.04204 -0.585124 100.963 -50.9177 -84.0235 33.9796 -10.975 0.946917 -4.66727 -12.1252 -19.8302 -10.9915 -0.729103 2.62858 -82.1018 -53.5812 90.6644 -23.3725 6.72372 -20.9978 9.13671 28.5394 -18.7864 -5.16975 -0.128662 -2.8076 7.03764 5.14814 -11.3677 -25.8069 4.49125 14.9741 
-128.871 95.5099 117.147 105.256 54.6862 79.8555 -176.482 -3.03578 87.6673 -28.7517 24.1062 4.74637 66.3655 8.33664 12.4117 43.6618 -0.805184 4.73444 170.97 20.6801 86.8075 -32.2253 -0.923383 2.89434 56.3321 6.82657 14.4129 30.9329 -0.284542 1.23005 -0.860839 7.91264 -90.1563 11.0486 -1.78598 -0.139798 -0.621062 -1.79042 -0.0610398 -23.165 -1.66139 -0.670251 -3.15234 -1.66139 -0.67025 101.485 -51.7763 -83.2082 34.299 -8.0285 3.47814 -3.71849 -12.6808 -15.4275 -10.0326 -0.677339 2.67877 -82.33 -52.5416 90.2524 -21.398 8.73308 -27.9213 10.6698 20.9686 -26.8848 -2.27649 -0.0895095 -3.21029 8.44419 3.87825 -11.2113 -26.1019 3.52016 13.8306 
-121.564 95.5964 110.623 104.9 58.1924 78.1218 -176.588 -8.69255 89.5664 -27.0105 27.6785 5.92179 63.7426 6.45598 9.2833 50.4551 -0.629505 7.26893 175.247 18.1552 83.8839 -9.46516 8.39448 0.204865 58.9365 8.23486 17.8085 30.7807 -0.362049 0.614915 -1.04738 7.80103 -90.043 11.2733 -2.10433 0.122918 -0.396009 -2.09687 0.215441 -22.9442 -2.04395 -0.515477 -2.93157 -2.04395 -0.515485 102.096 -51.7835 -82.2743 35.3575 -5.04715 6.51576 -3.32553 -11.3444 -13.0892 -8.15166 -0.459017 1.47306 -82.9164 -52.2842 89.3656 -19.5148 10.0235 -32.4692 13.3275 20.1075 -33.0743 -1.25329 -0.0815979 -3.60136 7.97871 2.59442 -10.1904 -25.0217 2.29005 12.9902 
-113.106 94.1714 103.178 105.193 57.2765 78.5426 -177.609 -11.4441 91.2818 -34.3446 28.1696 7.88269 58.94 1.90736 4.68386 62.7986 -2.00064 6.17245 175.502 19.7065 85.2235 -15.5003 0.219399 0.705979 54.0382 9.4063 14.0917 32.2845 -0.911334 -0.470057 -0.908038 7.79512 -90.376 11.2795 -1.98204 -0.551484 -0.389965 -2.00439 -0.463692 -22.9339 -1.72468 -1.12182 -2.92124 -1.72466 -1.12181 101.49 -51.3644 -83.2052 34.6707 -4.574 7.32558 -2.22322 -11.3674 -10.5833 -10.9312 -0.757585 2.98107 -82.8639 -53.2004 89.5207 -20.2376 10.5661 -29.9828 15.0121 19.1788 -36.8027 -0.663825 -0.0968808 -4.84014 11.1533 2.38873 -6.20766 -26.6448 1.36172 12.2146 
-104.707 93.0896 95.7509 105.342 56.1458 81.3994 -178.115 -5.82846 95.3658 -47.8093 15.9307 6.85917 42.3052 -8.05456 -6.29643 44.1417 -3.69432 -9.17518 174.784 21.76 88.9795 -31.428 -7.20662 2.74056 56.9483 7.50671 7.96984 26.6509 0.993879 3.46408 -0.854225 7.71693 -90.9862 11.4212 -2.16001 -1.74587 -0.248957 -2.23474 -1.64913 -22.783 -1.53559 -2.3142 -2.77032 -1.53557 -2.31419 101.655 -51.1012 -82.9542 32.1812 -4.33625 5.11293 -1.69382 -10.9319 -9.56273 -12.8792 -1.03617 4.28132 -83.4612 -54.1319 88.7363 -23.1888 10.2582 -21.8981 14.6325 20.8335 -34.4595 -1.59442 -0.0903487 -4.34431 12.5654 3.08807 -4.27533 -27.0655 1.52621 12.5986 
-97.2094 93.9512 89.0559 106.665 55.7603 81.0937 179.273 6.40945 95.4597 -64.2742 8.42723 5.50312 44.8231 -4.66122 2.75729 50.5501 -1.7132 3.47314 174.4 16.5206 90.7079 -36.8071 -4.41053 2.97108 65.4488 5.30278 9.7856 24.1069 1.62453 4.44319 -0.671677 7.90664 -91.1289 11.0429 -1.86045 -2.06749 -0.628266 -1.94962 -1.98364 -23.1551 -1.15331 -2.53081 -3.14249 -1.1533 -2.53082 102.125 -50.8093 -82.2309 31.1122 -5.26039 1.03921 -1.65571 -5.86189 -14.1761 -14.4805 -0.979939 2.73012 -84.0833 -54.274 87.8514 -25.8156 9.09546 -19.0155 11.142 27.6636 -23.7848 -6.2393 -0.120011 -3.36198 15.6165 1.72044 -6.92176 -28.3469 0.869022 12.6005 
-89.7322 95.6472 82.488 104.488 51.3825 79.9766 -177.989 15.8753 88.038 -59.7003 8.27567 2.64757 51.8579 -0.115303 4.63792 51.5411 -0.908819 6.56888 175.231 10.2283 89.6659 -35.8093 -4.90556 0.498676 69.9005 4.8553 11.867 25.3433 1.55141 5.74231 -0.111663 7.85412 -90.6616 11.1611 -0.529618 -1.26612 -0.510403 -0.584819 -1.24159 -23.0404 -0.124652 -1.36674 -3.0278 -0.124645 -1.36674 102.019 -50.4576 -82.3953 30.4671 -9.10821 -1.54893 -2.45655 -4.5894 -23.6112 -18.6653 -1.23971 2.56933 -84.0508 -54.5225 87.9233 -27.3821 6.19183 -14.5028 7.37378 33.1868 -14.0735 -9.85926 -0.218795 -2.49375 12.9509 1.07458 -7.59605 -26.2023 0.667766 11.7846 
-83.049 96.4503 76.1218 102.616 48.3499 80.7532 -177.134 17.8589 86.8942 -34.6258 7.17335 0.69597 53.5601 1.44843 6.25782 54.2038 -0.305935 9.17936 175.1 3.30153 88.9796 -32.5471 -5.5756 -0.417223 73.1 3.18033 12.8257 25.0437 1.70756 6.57249 0.180198 7.84089 -90.476 11.1915 0.137334 -0.960836 -0.479775 0.0949239 -0.965955 -23.0126 0.419759 -0.875144 -2.99993 0.41974 -0.875159 102.026 -49.8208 -82.3848 29.2997 -11.4874 -4.81393 -6.16368 -5.78612 -33.3523 -15.9433 -0.781828 0.388188 -83.6902 -55.738 88.5585 -27.5572 1.99129 -7.51192 6.45602 32.8496 -10.3266 -10.5163 -0.271357 -1.82177 12.6873 1.35129 -6.49039 -25.5634 0.798642 11.3103 
